<svg xmlns="http://www.w3.org/2000/svg" width="15" height="15" viewBox="0 0 15 15">
  <defs>
    <style>
      .cls-1 {
        fill: #7347c1;
        fill-rule: evenodd;
      }
    </style>
  </defs>
  <path id="Forma_1" data-name="Forma 1" class="cls-1" d="M1072.17,2837.67a7.5,7.5,0,1,0,7.5-7.5A7.5,7.5,0,0,0,1072.17,2837.67Zm0.57,0a6.951,6.951,0,0,1,.6-2.82l3.31,9.04A6.912,6.912,0,0,1,1072.74,2837.67Zm6.93,6.92a7.033,7.033,0,0,1-1.96-.28l2.08-6.04,2.13,5.83a1.037,1.037,0,0,0,.04.1A6.924,6.924,0,0,1,1079.67,2844.59Zm5.59-7.05a6.472,6.472,0,0,0,.53-2.48,5.426,5.426,0,0,0-.05-0.72,6.927,6.927,0,0,1-2.59,9.31Zm-1.49-2.13a3.664,3.664,0,0,1,.57,1.91,6.464,6.464,0,0,1-.53,2.23l-0.69,2.31-2.5-7.44c0.42-.02.79-0.07,0.79-0.07a0.286,0.286,0,0,0-.04-0.57s-1.12.09-1.85,0.09c-0.68,0-1.82-.09-1.82-0.09a0.286,0.286,0,0,0-.04.57s0.35,0.05.72,0.07l1.08,2.96-1.51,4.54-2.53-7.5c0.42-.02.8-0.07,0.8-0.07a0.286,0.286,0,0,0-.05-0.57s-1.12.09-1.84,0.09c-0.13,0-.28,0-0.45-0.01a6.919,6.919,0,0,1,10.46-1.3h-0.09a1.193,1.193,0,0,0-1.16,1.22A3.234,3.234,0,0,0,1083.77,2835.41Z" transform="translate(-1072.16 -2830.16)"/>
</svg>
